<svg width="257" height="49" viewBox="0 0 257 49" fill="none" xmlns="http://www.w3.org/2000/svg">
<path d="M2.08087 26.438C2.08087 20.2818 5.66155 15.5075 15.5869 15.5075C20.2983 15.5075 25.4495 17.2036 29.7211 22.292L23.5021 27.82C20.7381 25.1816 18.4138 23.9881 14.7075 23.9881C12.7601 23.9881 11.2524 24.3022 11.2524 25.3073C11.2524 26.3124 14.3305 26.7521 17.0946 27.3175C24.6328 28.9508 28.9673 31.1494 28.9673 38.0595C28.9673 44.1529 24.3815 48.8015 17.1574 48.8015C8.99094 48.8015 4.59363 47.1054 0.384766 42.0171L6.60383 36.489C9.30503 39.1274 12.1319 40.321 15.6497 40.321C17.7856 40.321 19.7958 39.7556 19.7958 38.8761C19.7958 37.9338 17.7856 37.871 13.8908 37.2428C5.47309 35.9236 2.08087 31.8404 2.08087 26.438Z" fill="url(#paint0_linear_14737_3039)"/>
<path d="M53.4053 16.4498H63.4563V47.8592H47.5632C35.5648 47.8592 32.361 40.321 32.361 33.1596V16.4498H42.412V33.1596C42.412 37.0544 44.9876 39.6928 49.0708 39.6928H53.4053V16.4498Z" fill="url(#paint1_linear_14737_3039)"/>
<path d="M84.3097 24.6163C80.7918 24.6163 79.1586 27.2547 79.1586 31.1494V47.8592H69.1076V31.1494C69.1076 23.9881 72.3113 16.4498 83.2418 16.4498H90.5288V24.6163H84.3097Z" fill="url(#paint2_linear_14737_3039)"/>
<path d="M113.795 47.8592H109.649C99.5977 47.8592 94.321 42.8337 94.321 32.6571V7.027H104.372V16.4498H113.418V24.6163H104.372V32.6571C104.372 35.6724 106.005 39.6928 110.088 39.6928H113.795V47.8592Z" fill="url(#paint3_linear_14737_3039)"/>
<path d="M118.813 12.6807V2.62968H128.864V12.6807H118.813ZM118.813 39.0646V16.4498H128.864V47.8592H127.608C122.331 47.8592 118.813 44.3414 118.813 39.0646Z" fill="url(#paint4_linear_14737_3039)"/>
<path d="M151.276 48.8015C139.466 48.8015 133.875 42.0799 133.875 32.0917C133.875 21.7266 140.031 15.5075 150.836 15.5075C156.113 15.5075 160.761 17.2036 165.284 22.292L159.065 27.82C156.175 25.1816 154.291 23.9881 151.087 23.9881C146.187 23.9881 144.24 26.8149 144.24 32.0917C144.24 36.9916 146.376 40.321 151.527 40.321C154.856 40.321 156.866 39.1274 159.756 36.489L165.975 42.0171C161.452 47.1054 156.552 48.8015 151.276 48.8015Z" fill="url(#paint5_linear_14737_3039)"/>
<path d="M179.139 47.8592H169.088V0.745117H179.139V27.1918H183.724L189.19 16.4498H200.497L192.519 32.1545L200.497 47.8592H189.19L182.845 35.3583H179.139V47.8592Z" fill="url(#paint6_linear_14737_3039)"/>
<path d="M232.783 34.7301H211.236C211.864 38.1223 213.937 40.321 217.895 40.321C221.099 40.321 222.983 39.1274 225.873 36.489L232.092 42.0171C227.569 47.1054 222.795 48.8015 217.644 48.8015C206.085 48.8015 200.62 42.0799 200.62 32.0917C200.62 22.1035 206.336 15.5075 216.45 15.5075C228.448 15.5075 232.783 22.6061 232.783 34.7301ZM211.362 28.4482H222.983C222.104 25.5585 220.282 23.9881 217.141 23.9881C213.874 23.9881 212.116 25.6842 211.362 28.4482Z" fill="url(#paint7_linear_14737_3039)"/>
<path d="M256.671 47.8592H252.525C242.474 47.8592 237.197 42.8337 237.197 32.6571V7.027H247.248V16.4498H256.294V24.6163H247.248V32.6571C247.248 35.6724 248.881 39.6928 252.964 39.6928H256.671V47.8592Z" fill="url(#paint8_linear_14737_3039)"/>
<defs>
<linearGradient id="paint0_linear_14737_3039" x1="256.671" y1="48.8015" x2="198.798" y2="-85.045" gradientUnits="userSpaceOnUse">
<stop offset="0.0760415" stop-color="#FB493F"/>
<stop offset="0.914583" stop-color="#FE802D"/>
</linearGradient>
<linearGradient id="paint1_linear_14737_3039" x1="256.671" y1="48.8015" x2="198.798" y2="-85.045" gradientUnits="userSpaceOnUse">
<stop offset="0.0760415" stop-color="#FB493F"/>
<stop offset="0.914583" stop-color="#FE802D"/>
</linearGradient>
<linearGradient id="paint2_linear_14737_3039" x1="256.671" y1="48.8015" x2="198.798" y2="-85.045" gradientUnits="userSpaceOnUse">
<stop offset="0.0760415" stop-color="#FB493F"/>
<stop offset="0.914583" stop-color="#FE802D"/>
</linearGradient>
<linearGradient id="paint3_linear_14737_3039" x1="256.671" y1="48.8015" x2="198.798" y2="-85.045" gradientUnits="userSpaceOnUse">
<stop offset="0.0760415" stop-color="#FB493F"/>
<stop offset="0.914583" stop-color="#FE802D"/>
</linearGradient>
<linearGradient id="paint4_linear_14737_3039" x1="256.671" y1="48.8015" x2="198.798" y2="-85.045" gradientUnits="userSpaceOnUse">
<stop offset="0.0760415" stop-color="#FB493F"/>
<stop offset="0.914583" stop-color="#FE802D"/>
</linearGradient>
<linearGradient id="paint5_linear_14737_3039" x1="256.671" y1="48.8015" x2="198.798" y2="-85.045" gradientUnits="userSpaceOnUse">
<stop offset="0.0760415" stop-color="#FB493F"/>
<stop offset="0.914583" stop-color="#FE802D"/>
</linearGradient>
<linearGradient id="paint6_linear_14737_3039" x1="256.671" y1="48.8015" x2="198.798" y2="-85.045" gradientUnits="userSpaceOnUse">
<stop offset="0.0760415" stop-color="#FB493F"/>
<stop offset="0.914583" stop-color="#FE802D"/>
</linearGradient>
<linearGradient id="paint7_linear_14737_3039" x1="256.671" y1="48.8015" x2="198.798" y2="-85.045" gradientUnits="userSpaceOnUse">
<stop offset="0.0760415" stop-color="#FB493F"/>
<stop offset="0.914583" stop-color="#FE802D"/>
</linearGradient>
<linearGradient id="paint8_linear_14737_3039" x1="256.671" y1="48.8015" x2="198.798" y2="-85.045" gradientUnits="userSpaceOnUse">
<stop offset="0.0760415" stop-color="#FB493F"/>
<stop offset="0.914583" stop-color="#FE802D"/>
</linearGradient>
</defs>
</svg>
